<svg width="24" height="24" viewBox="0 0 24 24" fill="none" xmlns="http://www.w3.org/2000/svg">
<path fill-rule="evenodd" clip-rule="evenodd" d="M15.9686 17.2439C18.4745 16.9446 20.6564 15.4006 20.9307 13.9898C21.3628 11.7674 21.3271 8.56632 21.3271 8.56632C21.3271 4.22771 18.4845 2.95599 18.4845 2.95599C17.0513 2.29772 14.5902 2.0209 12.0333 2H11.9705C9.41359 2.0209 6.9541 2.29772 5.52075 2.95599C5.52075 2.95599 2.67809 4.22771 2.67809 8.56632C2.67809 8.82934 2.67673 9.10599 2.67532 9.39399C2.67139 10.1938 2.66703 11.0812 2.69016 12.0074C2.79339 16.2504 3.46804 20.432 7.39093 21.4703C9.19969 21.9491 10.7526 22.0493 12.0033 21.9805C14.2715 21.8548 15.5447 21.1711 15.5447 21.1711L15.4699 19.5254C15.4699 19.5254 13.8491 20.0365 12.0288 19.9742C10.2253 19.9124 8.32139 19.7797 8.0297 17.5655C8.00276 17.371 7.98929 17.163 7.98929 16.9446C7.98929 16.9446 9.75969 17.3774 12.0033 17.4802C13.3753 17.5431 14.6619 17.3998 15.9686 17.2439ZM17.9741 14.1562V8.90289C17.9741 7.82923 17.7007 6.97603 17.1517 6.34481C16.5854 5.71359 15.8438 5.39 14.9234 5.39C13.8582 5.39 13.0517 5.79936 12.5185 6.61818L12 7.48722L11.4816 6.61818C10.9483 5.79936 10.1418 5.39 9.07675 5.39C8.1562 5.39 7.41464 5.71359 6.84839 6.34481C6.29928 6.97603 6.02591 7.82923 6.02591 8.90289V14.1562H8.10718V9.0573C8.10718 7.98245 8.55942 7.4369 9.46401 7.4369C10.4642 7.4369 10.9656 8.08407 10.9656 9.36375V12.1547H13.0346V9.36375C13.0346 8.08407 13.5358 7.4369 14.536 7.4369C15.4406 7.4369 15.8928 7.98245 15.8928 9.0573V14.1562H17.9741Z" fill="#848484"/>
</svg>
