<svg width="37" height="35" viewBox="0 0 37 35" fill="none" xmlns="http://www.w3.org/2000/svg">
<path d="M6.32818 11.4862C6.33228 9.96215 6.64107 8.45407 7.23665 7.04935C7.83224 5.64464 8.70277 4.37123 9.7978 3.30294C10.8928 2.23466 12.1906 1.39273 13.6158 0.825971C15.0411 0.25921 16.5655 -0.0211166 18.1007 0.0012392C21.2028 0.00241179 24.1783 1.22276 26.3766 3.39546C28.5749 5.56816 29.8172 8.51646 29.8317 11.5958C29.8317 17.8951 24.4192 23.1538 17.9949 23.1172C16.459 23.1154 14.9386 22.813 13.5207 22.2272C12.1027 21.6415 10.8151 20.7839 9.73142 19.7035C8.64776 18.6232 7.78938 17.3413 7.20541 15.9313C6.62144 14.5212 6.32334 13.0107 6.32818 11.4862V11.4862ZM24.0007 11.5592C23.9886 9.99331 23.3534 8.49563 22.2335 7.3926C21.1137 6.28958 19.6001 5.67064 18.0225 5.67068C16.8538 5.68149 15.7145 6.03525 14.7479 6.68743C13.7814 7.3396 13.0308 8.26104 12.5907 9.33574C12.1506 10.4104 12.0406 11.5904 12.2746 12.727C12.5086 13.8636 13.0761 14.9061 13.9057 15.7233C14.7352 16.5404 15.7898 17.0957 16.9367 17.3192C18.0835 17.5426 19.2713 17.4243 20.3505 16.9792C21.4298 16.534 22.3522 15.7819 23.0017 14.8174C23.6513 13.853 23.9988 12.7193 24.0007 11.5592V11.5592Z" fill="black"/>
<path d="M2.43296 34.7072C1.73397 33.3697 1.08097 32.0048 0.312996 30.7084C-0.179057 29.8777 -0.146868 29.4486 0.814244 29.0012C12.3108 23.7609 23.7706 23.6741 35.2487 29.0377C36.1685 29.4668 36.2512 29.7681 35.7868 30.6719C35.1062 32.0003 34.0531 33.1689 33.8094 34.7072H33.1196C33.0598 34.2507 32.6229 34.2507 32.3424 34.1046C28.7756 32.3476 24.8995 31.2934 20.9286 31.0006C14.5411 30.5076 8.43876 31.5118 2.81464 34.7072H2.43296Z" fill="black"/>
</svg>
